<svg xmlns="http://www.w3.org/2000/svg" width="100%" height="100%" preserveAspectRatio="none" viewBox="0 0 1512 3230" fill="none">
<g clip-path="url(#clip0_1158_132031)">
<mask id="mask0_1158_132031" style="mask-type:alpha" maskUnits="userSpaceOnUse" x="0" y="0" width="2105" height="3549" fill="#a6adbb">
<path fill-rule="evenodd" clip-rule="evenodd" d="M1683.87 929.955C1682.17 931.843 1679.83 933.191 1675.15 935.886L1512 1029.86V3549H0V1891.16L-0.391174 1890.94C-0.661743 1890.78 -0.943604 1890.62 -1.23782 1890.45L-1.23874 1890.45L-406.272 1655.97L-406.272 1655.97L-406.275 1655.96C-409.757 1653.95 -411.498 1652.94 -412.765 1651.53C-413.887 1650.29 -414.735 1648.82 -415.255 1647.22C-415.842 1645.42 -415.845 1643.41 -415.852 1639.38L-416.981 976.777C-416.988 972.73 -416.991 970.706 -416.405 968.895C-415.886 967.292 -415.035 965.816 -413.908 964.563C-412.635 963.148 -410.882 962.136 -407.377 960.114L515.665 427.538L515.665 427.538C519.126 425.541 520.874 424.533 522.711 424.129L1248.47 5.38416L1248.47 5.38353C1253.13 2.69374 1255.46 1.3488 1257.94 0.822594C1260.13 0.356967 1262.4 0.357317 1264.59 0.823619C1267.07 1.35063 1269.4 2.69646 1274.06 5.38811L1674.06 236.344C1678.71 239.032 1681.04 240.375 1682.73 242.255C1684.23 243.917 1685.37 245.876 1686.06 248.004C1686.85 250.409 1686.85 253.095 1686.86 258.466V258.471L1687.97 913.659C1687.98 919.06 1687.99 921.76 1687.21 924.177C1686.51 926.316 1685.38 928.285 1683.87 929.955Z" fill="#000000"/>
</mask>
<g mask="url(#mask0_1158_132031)">
<g filter="url(#filter0_d_1158_132031)">
<rect x="0.5" y="-119.5" width="1511" height="3263" rx="23.5" stroke="white" shape-rendering="crispEdges" fill="#a6adbb"/>
<g clip-path="url(#clip1_1158_132031)">
<path d="M1679.74 931.424C1676.34 935.2 1671.66 937.896 1662.3 943.287L1512 1029.86V3619.5H0V1891.16C-0.387512 1890.94 -0.798889 1890.7 -1.23782 1890.45L-406.272 1655.97L-406.272 1655.97L-406.275 1655.96C-409.757 1653.95 -411.498 1652.94 -412.765 1651.53C-413.887 1650.29 -414.735 1648.82 -415.255 1647.22C-415.842 1645.42 -415.845 1643.41 -415.852 1639.38L-416.981 976.777C-416.988 972.73 -416.991 970.706 -416.405 968.895C-415.886 967.292 -415.035 965.816 -413.908 964.564C-412.635 963.148 -410.882 962.137 -407.377 960.114L515.665 427.538C519.125 425.542 520.874 424.533 522.711 424.13L1235.67 12.7688C1244.99 7.38838 1249.65 4.69817 1254.61 3.64568C1259 2.71442 1263.53 2.71512 1267.91 3.64773C1272.87 4.70175 1277.53 7.3934 1286.86 12.7767L1661.29 228.969C1670.59 234.344 1675.25 237.031 1678.64 240.789C1681.63 244.115 1683.9 248.032 1685.29 252.289C1686.86 257.099 1686.87 262.473 1686.88 273.222L1687.95 898.832C1687.97 909.634 1687.98 915.034 1686.41 919.869C1685.03 924.146 1682.75 928.084 1679.74 931.424Z" fill="url(#paint1_linear_1158_132031)"/>
</g>
<g clip-path="url(#clip2_1158_132031)">
<path d="M-166.661 3076.96L301.24 2634.87C478.203 2467.68 701.122 2357.15 941.393 2317.46L1577.01 2212.44" stroke="#a6adbb" stroke-miterlimit="10" stroke-linecap="round" fill="#a6adbb"/>
<path d="M-144.951 3101.41L322.951 2659.31C499.913 2492.12 722.832 2381.59 963.104 2341.9L1598.72 2236.89" stroke="#a6adbb" stroke-miterlimit="10" stroke-linecap="round" fill="#a6adbb"/>
<path d="M-123.241 3125.85L344.661 2683.76C521.623 2516.57 744.542 2406.04 984.814 2366.35L1620.43 2261.33" stroke="#a6adbb" stroke-miterlimit="10" stroke-linecap="round" fill="#a6adbb"/>
<path d="M-101.534 3150.29L366.367 2708.2C543.33 2541.01 766.249 2430.48 1006.52 2390.79L1642.14 2285.77" stroke="#a6adbb" stroke-miterlimit="10" stroke-linecap="round" fill="#a6adbb"/>
<path d="M-81.2471 3174.45L386.654 2732.35C563.617 2565.16 786.536 2454.63 1026.81 2414.94L1662.4 2309.88" stroke="#a6adbb" stroke-miterlimit="10" stroke-linecap="round" fill="#a6adbb"/>
<path d="M-59.5312 3198.85L408.37 2756.76C585.333 2589.57 808.252 2479.04 1048.52 2439.35L1684.12 2334.29" stroke="#a6adbb" stroke-miterlimit="10" stroke-linecap="round" fill="#a6adbb"/>
<path d="M-37.8135 3223.26L430.088 2781.17C607.05 2613.98 829.969 2503.45 1070.24 2463.76L1705.84 2358.7" stroke="#a6adbb" stroke-miterlimit="10" stroke-linecap="round" fill="#a6adbb"/>
<path d="M-16.0991 3247.67L451.802 2805.58C628.765 2638.38 851.684 2527.85 1091.96 2488.16L1727.55 2383.11" stroke="#a6adbb" stroke-miterlimit="10" stroke-linecap="round" fill="#a6adbb"/>
<path d="M4.19728 3271.78L472.099 2829.69C649.061 2662.5 871.98 2551.97 1112.25 2512.28L1747.85 2407.22" stroke="#a6adbb" stroke-miterlimit="10" stroke-linecap="round" fill="#a6adbb"/>
<path d="M25.9111 3296.19L493.813 2854.1C670.775 2686.91 893.694 2576.38 1133.97 2536.69L1769.56 2431.63" stroke="#a6adbb" stroke-miterlimit="10" stroke-linecap="round" fill="#a6adbb"/>
<path d="M47.6294 3320.6L515.531 2878.51C692.493 2711.31 915.412 2600.78 1155.68 2561.09L1791.28 2456.04" stroke="#a6adbb" stroke-miterlimit="10" stroke-linecap="round" fill="#a6adbb"/>
<path d="M69.3467 3345.01L537.248 2902.91C714.211 2735.72 937.13 2625.19 1177.4 2585.5L1813 2480.44" stroke="#a6adbb" stroke-miterlimit="10" stroke-linecap="round" fill="#a6adbb"/>
<path d="M89.6377 3369.12L557.539 2927.03C734.502 2759.84 957.421 2649.3 1197.69 2609.62L1833.29 2504.56" stroke="#a6adbb" stroke-miterlimit="10" stroke-linecap="round" fill="#a6adbb"/>
<path d="M111.357 3393.53L579.259 2951.43C756.221 2784.24 979.14 2673.71 1219.41 2634.02L1855.01 2528.97" stroke="#a6adbb" stroke-miterlimit="10" stroke-linecap="round" fill="#a6adbb"/>
<path d="M133.075 3417.94L600.977 2975.84C777.939 2808.65 1000.86 2698.12 1241.13 2658.43L1876.72 2553.37" stroke="#a6adbb" stroke-miterlimit="10" stroke-linecap="round" fill="#a6adbb"/>
<path d="M154.792 3442.34L622.693 3000.25C799.655 2833.06 1022.57 2722.53 1262.85 2682.84L1898.46 2577.82" stroke="#a6adbb" stroke-miterlimit="10" stroke-linecap="round" fill="#a6adbb"/>
<path d="M176.505 3466.79L644.407 3024.7C821.369 2857.51 1044.29 2746.97 1284.56 2707.29L1920.18 2602.27" stroke="#a6adbb" stroke-miterlimit="10" stroke-linecap="round" fill="#a6adbb"/>
<path d="M201.888 3491.99L669.79 3049.9C846.752 2882.71 1069.67 2772.18 1309.94 2732.49L1945.56 2627.47" stroke="#a6adbb" stroke-miterlimit="10" stroke-linecap="round" fill="#a6adbb"/>
<path d="M219.922 3515.68L687.824 3073.59C864.786 2906.39 1087.71 2795.86 1327.98 2756.17L1963.59 2651.16" stroke="#a6adbb" stroke-miterlimit="10" stroke-linecap="round" fill="#a6adbb"/>
<path d="M241.63 3540.12L709.532 3098.03C886.494 2930.84 1109.41 2820.31 1349.68 2780.62L1985.3 2675.6" stroke="#a6adbb" stroke-miterlimit="10" stroke-linecap="round" fill="#a6adbb"/>
<path d="M261.914 3564.27L729.815 3122.18C906.778 2954.99 1129.7 2844.46 1369.97 2804.77L2005.58 2699.75" stroke="#a6adbb" stroke-miterlimit="10" stroke-linecap="round" fill="#a6adbb"/>
<path d="M283.624 3588.72L751.525 3146.62C928.488 2979.43 1151.41 2868.9 1391.68 2829.21L2027.29 2724.2" stroke="#a6adbb" stroke-miterlimit="10" stroke-linecap="round" fill="#a6adbb"/>
<path d="M305.336 3613.16L773.237 3171.07C950.2 3003.88 1173.12 2893.35 1413.39 2853.66L2049.01 2748.64" stroke="#a6adbb" stroke-miterlimit="10" stroke-linecap="round" fill="#a6adbb"/>
<path d="M327.041 3637.61L794.942 3195.51C971.904 3028.32 1194.82 2917.79 1435.1 2878.1L2070.71 2773.09" stroke="#a6adbb" stroke-miterlimit="10" stroke-linecap="round" fill="#a6adbb"/>
<path d="M347.332 3661.76L815.233 3219.66C992.195 3052.47 1215.11 2941.94 1455.39 2902.25L2091 2797.24" stroke="#a6adbb" stroke-miterlimit="10" stroke-linecap="round" fill="#a6adbb"/>
<path d="M369.038 3686.2L836.939 3244.11C1013.9 3076.92 1236.82 2966.39 1477.09 2926.7L2112.71 2821.68" stroke="#a6adbb" stroke-miterlimit="10" stroke-linecap="round" fill="#a6adbb"/>
<path d="M390.747 3710.65L858.648 3268.55C1035.61 3101.36 1258.53 2990.83 1498.8 2951.14L2134.42 2846.12" stroke="#a6adbb" stroke-miterlimit="10" stroke-linecap="round" fill="#a6adbb"/>
<path d="M412.459 3735.09L880.36 3293C1057.32 3125.81 1280.24 3015.28 1520.51 2975.59L2156.13 2870.57" stroke="#a6adbb" stroke-miterlimit="10" stroke-linecap="round" fill="#a6adbb"/>
<path d="M432.74 3759.24L900.641 3317.15C1077.6 3149.96 1300.52 3039.43 1540.79 2999.74L2176.41 2894.72" stroke="#a6adbb" stroke-miterlimit="10" stroke-linecap="round" fill="#a6adbb"/>
<path d="M454.454 3783.69L922.355 3341.59C1099.32 3174.4 1322.24 3063.87 1562.51 3024.18L2198.12 2919.17" stroke="#a6adbb" stroke-miterlimit="10" stroke-linecap="round" fill="#a6adbb"/>
<path d="M80.164 460.47L706.425 609.384C943.275 665.694 1191.59 649.957 1419.52 564.193L2022.49 337.332" stroke="#a6adbb" stroke-miterlimit="10" stroke-linecap="round" fill="#a6adbb"/>
<path d="M86.7436 428.446L713.005 577.359C949.854 633.669 1198.17 617.932 1426.1 532.168L2029.07 305.308" stroke="#a6adbb" stroke-miterlimit="10" stroke-linecap="round" fill="#a6adbb"/>
<path d="M93.3227 396.421L719.584 545.334C956.433 601.644 1204.75 585.908 1432.68 500.144L2035.65 273.283" stroke="#a6adbb" stroke-miterlimit="10" stroke-linecap="round" fill="#a6adbb"/>
<path d="M99.8989 364.398L726.16 513.312C963.009 569.622 1211.33 553.885 1439.25 468.121L2042.22 241.261" stroke="#a6adbb" stroke-miterlimit="10" stroke-linecap="round" fill="#a6adbb"/>
<path d="M105.393 333.34L731.654 482.253C968.504 538.563 1216.82 522.827 1444.75 437.062L2047.72 210.249" stroke="#a6adbb" stroke-miterlimit="10" stroke-linecap="round" fill="#a6adbb"/>
<path d="M111.996 301.344L738.257 450.258C975.106 506.568 1223.43 490.831 1451.35 405.067L2054.32 178.254" stroke="#a6adbb" stroke-miterlimit="10" stroke-linecap="round" fill="#a6adbb"/>
<path d="M118.6 269.347L744.861 418.261C981.711 474.571 1230.03 458.834 1457.96 373.07L2060.93 146.257" stroke="#a6adbb" stroke-miterlimit="10" stroke-linecap="round" fill="#a6adbb"/>
<path d="M125.201 237.353L751.462 386.266C988.312 442.576 1236.63 426.84 1464.56 341.076L2067.53 114.262" stroke="#a6adbb" stroke-miterlimit="10" stroke-linecap="round" fill="#a6adbb"/>
<path d="M130.721 206.321L756.982 355.234C993.832 411.544 1242.15 395.807 1470.08 310.043L2073.05 83.2301" stroke="#a6adbb" stroke-miterlimit="10" stroke-linecap="round" fill="#a6adbb"/>
<path d="M137.322 174.327L763.583 323.24C1000.43 379.55 1248.75 363.813 1476.68 278.049L2079.65 51.236" stroke="#a6adbb" stroke-miterlimit="10" stroke-linecap="round" fill="#a6adbb"/>
<path d="M143.927 142.329L770.188 291.243C1007.04 347.553 1255.36 331.816 1483.28 246.052L2086.25 19.2389" stroke="#a6adbb" stroke-miterlimit="10" stroke-linecap="round" fill="#a6adbb"/>
<path d="M150.531 110.332L776.792 259.246C1013.64 315.556 1261.96 299.819 1489.89 214.055L2092.86 -12.7581" stroke="#a6adbb" stroke-miterlimit="10" stroke-linecap="round" fill="#a6adbb"/>
<path d="M156.046 79.3041L782.308 228.218C1019.16 284.528 1267.48 268.791 1495.4 183.027L2098.37 -43.7865" stroke="#a6adbb" stroke-miterlimit="10" stroke-linecap="round" fill="#a6adbb"/>
<path d="M162.652 47.3056L788.913 196.219C1025.76 252.529 1274.08 236.792 1502.01 151.028L2104.98 -75.785" stroke="#a6adbb" stroke-miterlimit="10" stroke-linecap="round" fill="#a6adbb"/>
<path d="M169.256 15.309L795.517 164.222C1032.37 220.532 1280.69 204.796 1508.61 119.032L2111.58 -107.782" stroke="#a6adbb" stroke-miterlimit="10" stroke-linecap="round" fill="#a6adbb"/>
<path d="M175.858 -16.6872L802.12 132.226C1038.97 188.536 1287.29 172.8 1515.21 87.0356L2118.18 -139.825" stroke="#a6adbb" stroke-miterlimit="10" stroke-linecap="round" fill="#a6adbb"/>
<path d="M182.44 -48.7145L808.702 100.199C1045.55 156.509 1293.87 140.772 1521.8 55.0083L2124.76 -171.852" stroke="#a6adbb" stroke-miterlimit="10" stroke-linecap="round" fill="#a6adbb"/>
<path d="M207.665 -175.84L833.927 -26.9269C1070.78 29.383 1319.1 13.6464 1547.02 -72.1177L2149.99 -298.978" stroke="#a6adbb" stroke-miterlimit="10" stroke-linecap="round" fill="#a6adbb"/>
<path d="M214.245 -207.866L840.506 -58.9523C1077.36 -2.64236 1325.67 -18.379 1553.6 -104.143L2156.57 -331.004" stroke="#a6adbb" stroke-miterlimit="10" stroke-linecap="round" fill="#a6adbb"/>
<path d="M220.825 -239.892L847.086 -90.9787C1083.94 -34.6687 1332.25 -50.4054 1560.18 -136.169L2163.15 -363.03" stroke="#a6adbb" stroke-miterlimit="10" stroke-linecap="round" fill="#a6adbb"/>
</g>
</g>
</g>
</g>
<defs fill="#a6adbb">
<filter id="filter0_d_1158_132031" x="-418" y="-121" width="2107" height="3635" filterUnits="userSpaceOnUse" color-interpolation-filters="sRGB" fill="#a6adbb">
<feFlood flood-opacity="0" result="BackgroundImageFix" fill="#a6adbb"/>
<feColorMatrix in="SourceAlpha" type="matrix" values="0 0 0 0 0 0 0 0 0 0 0 0 0 0 0 0 0 0 127 0" result="hardAlpha" fill="#a6adbb"/>
<feMorphology radius="1" operator="dilate" in="SourceAlpha" result="effect1_dropShadow_1158_132031" fill="#a6adbb"/>
<feOffset fill="#a6adbb"/>
<feComposite in2="hardAlpha" operator="out" fill="#a6adbb"/>
<feColorMatrix type="matrix" values="0 0 0 0 0.890196 0 0 0 0 0.894118 0 0 0 0 0.909804 0 0 0 1 0" fill="#a6adbb"/>
<feBlend mode="normal" in2="BackgroundImageFix" result="effect1_dropShadow_1158_132031" fill="#a6adbb"/>
<feBlend mode="normal" in="SourceGraphic" in2="effect1_dropShadow_1158_132031" result="shape" fill="#a6adbb"/>
</filter>
<linearGradient id="paint0_linear_1158_132031" x1="635.5" y1="812" x2="635.5" y2="2020" gradientUnits="userSpaceOnUse" fill="#a6adbb">
<stop stop-color="#a6adbb" fill="#a6adbb"/>
<stop offset="1" stop-color="#a6adbb" fill="#a6adbb"/>
</linearGradient>
<linearGradient id="paint1_linear_1158_132031" x1="635.488" y1="913.008" x2="635.488" y2="2649.13" gradientUnits="userSpaceOnUse" fill="#a6adbb">
<stop stop-color="#a6adbb" fill="#a6adbb"/>
<stop offset="1" stop-color="#a6adbb" fill="#a6adbb"/>
</linearGradient>
<clipPath id="clip0_1158_132031" fill="#a6adbb">
<rect width="1512" height="3230" fill="white"/>
</clipPath>
<clipPath id="clip1_1158_132031" fill="#a6adbb">
<rect width="2105" height="3545" fill="white" transform="translate(-417 -32)"/>
</clipPath>
<clipPath id="clip2_1158_132031" fill="#a6adbb">
<path d="M0 -11H1512V3193.6C1512 3207.04 1512 3213.76 1509.38 3218.9C1507.08 3223.41 1503.41 3227.08 1498.9 3229.38C1493.76 3232 1487.04 3232 1473.6 3232H38.4C24.9587 3232 18.2381 3232 13.1042 3229.38C8.58834 3227.08 4.9168 3223.41 2.61584 3218.9C0 3213.76 0 3207.04 0 3193.6V-11Z" fill="white"/>
</clipPath>
</defs>
</svg>